<svg width="265" height="228" viewBox="0 0 265 228" fill="none" xmlns="http://www.w3.org/2000/svg">
<g clip-path="url(#clip0)">
<path d="M243.968 223.407L240.011 223.407L238.129 207.8H243.968L243.968 223.407Z" fill="#9E616A"/>
<path d="M244.977 227.329L232.22 227.329V227.164C232.22 225.817 232.743 224.526 233.674 223.573C234.605 222.621 235.868 222.086 237.185 222.086H237.185L244.977 222.086L244.977 227.329Z" fill="#2F2E41"/>
<path d="M228.8 223.407L224.844 223.407L222.962 207.8H228.801L228.8 223.407Z" fill="#9E616A"/>
<path d="M229.809 227.329L217.052 227.329V227.164C217.052 225.817 217.575 224.526 218.507 223.573C219.438 222.621 220.701 222.086 222.018 222.086H222.018L229.809 222.086L229.809 227.329Z" fill="#2F2E41"/>
<path d="M57.8724 226.726V101.374C57.8724 100.602 58.1723 99.8619 58.7061 99.316C59.2399 98.7701 59.9639 98.4634 60.7188 98.4634H73.4207C74.1756 98.4634 74.8995 98.7701 75.4333 99.316C75.9671 99.8619 76.267 100.602 76.267 101.374V227.052L57.8724 226.726Z" fill="#3F3D56"/>
<path d="M99.8248 227.118V127.447C99.8248 126.675 100.125 125.935 100.659 125.389C101.192 124.843 101.916 124.536 102.671 124.536H115.373C116.128 124.536 116.852 124.843 117.386 125.389C117.919 125.935 118.219 126.675 118.219 127.447V226.904L99.8248 227.118Z" fill="#3F3D56"/>
<path d="M25.2783 108.701C25.0913 108.701 24.9084 108.645 24.7515 108.541C24.5947 108.437 24.4707 108.289 24.3945 108.114C24.3183 107.94 24.2931 107.746 24.3221 107.557C24.3511 107.368 24.4329 107.192 24.5577 107.05L67.0283 58.6032L108.825 82.6066L150.871 8.51416L193.704 44.5691C193.802 44.6517 193.883 44.7533 193.943 44.868C194.003 44.9828 194.04 45.1085 194.053 45.238C194.065 45.3675 194.052 45.4982 194.015 45.6226C193.978 45.7471 193.917 45.8628 193.837 45.9633C193.756 46.0637 193.656 46.1469 193.544 46.208C193.432 46.2692 193.309 46.3071 193.182 46.3196C193.056 46.3321 192.928 46.319 192.806 46.281C192.684 46.243 192.571 46.1808 192.473 46.0981L151.401 11.5251L109.542 85.2891L67.4338 61.1072L25.9994 108.371C25.9087 108.475 25.7976 108.558 25.6733 108.615C25.549 108.672 25.4144 108.701 25.2783 108.701Z" fill="#3F3D56"/>
<path d="M25.1172 116.952C30.1076 116.952 34.1531 112.814 34.1531 107.711C34.1531 102.607 30.1076 98.4697 25.1172 98.4697C20.1268 98.4697 16.0813 102.607 16.0813 107.711C16.0813 112.814 20.1268 116.952 25.1172 116.952Z" fill="#2057B5"/>
<path d="M67.0697 69.0963C72.0601 69.0963 76.1056 64.959 76.1056 59.8553C76.1056 54.7516 72.0601 50.6143 67.0697 50.6143C62.0793 50.6143 58.0338 54.7516 58.0338 59.8553C58.0338 64.959 62.0793 69.0963 67.0697 69.0963Z" fill="#CCCCCC"/>
<path d="M109.022 93.1891C114.013 93.1891 118.058 89.0517 118.058 83.9481C118.058 78.8444 114.013 74.707 109.022 74.707C104.032 74.707 99.9862 78.8444 99.9862 83.9481C99.9862 89.0517 104.032 93.1891 109.022 93.1891Z" fill="#E6E6E6"/>
<path d="M150.975 19.2609C155.965 19.2609 160.01 15.1235 160.01 10.0198C160.01 4.91616 155.965 0.778809 150.975 0.778809C145.984 0.778809 141.939 4.91616 141.939 10.0198C141.939 15.1235 145.984 19.2609 150.975 19.2609Z" fill="#2057B5"/>
<path d="M231.652 88.0851C236.643 88.0851 240.688 83.9477 240.688 78.8441C240.688 73.7404 236.643 69.603 231.652 69.603C226.662 69.603 222.616 73.7404 222.616 78.8441C222.616 83.9477 226.662 88.0851 231.652 88.0851Z" fill="#2057B5"/>
<path d="M228.457 150.832C231.839 151.249 240.488 148.093 240.956 152.894C245.408 166.295 245.276 217.665 245.276 217.665L238.499 217.996C238.499 217.996 233.083 177.178 230.523 168.446C229.238 179.06 229.463 219.646 229.463 219.646L223.331 219.976C223.331 219.976 217.831 185.415 217.8 175.271C217.132 167.841 218.771 156.83 218.069 149.647C221.423 150.734 224.952 151.137 228.457 150.832L228.457 150.832Z" fill="#3F3D56"/>
<path d="M183.73 226.674V82.1991C183.73 80.3463 185.004 78.844 186.576 78.844H199.278C200.85 78.844 202.124 80.346 202.124 82.1991V227.052L183.73 226.674Z" fill="#3F3D56"/>
<path d="M216.953 111.954C215.596 109.118 213.94 106.443 212.012 103.977C211.609 103.495 211.243 102.983 210.915 102.445C210.221 101.214 210.014 99.7686 209.576 98.4221C208.349 94.6465 205.29 91.6134 204.545 87.7091C204.273 86.2899 201.984 90.4147 202.586 92.1745C203.66 95.3593 203.799 98.7323 205.167 101.808C206.536 104.884 208.143 107.835 209.324 110.98C209.995 112.765 210.531 114.61 211.515 116.261C212.499 117.911 214.035 119.294 215.891 119.541C215.878 118.345 216.056 117.154 216.417 116.016C216.82 114.716 217.537 113.185 216.953 111.954Z" fill="#9E616A"/>
<path d="M237.255 114.092C237.172 111.759 237.528 109.43 238.303 107.234C238.6 106.393 238.949 105.538 238.92 104.643C238.878 103.812 238.491 103.049 238.139 102.297C236.925 99.706 236.073 96.9601 235.234 94.2208L233.621 89.0557C233.095 88.6612 236.167 88.5244 236.822 89.4518C238.965 92.4947 240.588 95.9898 242.286 99.3133C242.719 100.105 243.088 100.932 243.389 101.785C243.804 103.168 244 104.61 243.97 106.056C243.97 108.759 243.622 111.452 243.26 114.132C243.031 115.812 242.731 117.64 241.489 118.752C240.198 117.063 238.9 115.412 237.255 114.092Z" fill="#9E616A"/>
<path d="M228.722 111.418C232.42 111.418 235.418 108.352 235.418 104.57C235.418 100.788 232.42 97.7219 228.722 97.7219C225.024 97.7219 222.026 100.788 222.026 104.57C222.026 108.352 225.024 111.418 228.722 111.418Z" fill="#9E616A"/>
<path d="M223.279 97.7377C223.203 97.5299 223.186 97.3047 223.23 97.0876C223.273 96.8704 223.375 96.67 223.524 96.5089C223.691 96.3741 223.913 96.3239 224.092 96.1953C224.347 95.9762 224.556 95.7063 224.705 95.4021C225.163 94.7475 225.832 94.2797 226.595 94.0817C227.357 93.8837 228.164 93.9684 228.871 94.3207C229.978 94.9131 230.646 96.0992 231.63 96.8978C232.13 97.3116 232.709 97.6187 233.212 98.0326C234.219 98.922 234.934 100.106 235.262 101.425C235.589 102.734 235.779 104.076 235.831 105.426C235.883 105.831 235.868 106.243 235.785 106.643C235.683 106.978 235.531 107.295 235.335 107.583C234.323 109.151 232.99 110.574 231.319 111.383C229.648 112.192 227.616 112.324 225.968 111.477C225.802 111.408 225.66 111.292 225.558 111.142C225.464 110.913 225.442 110.66 225.493 110.418C225.583 109.459 225.397 108.495 224.96 107.643C224.653 107.016 224.194 106.477 223.948 105.828C223.72 105.102 223.623 104.339 223.66 103.577C223.631 101.603 223.762 99.6376 223.279 97.7377Z" fill="#2D293D"/>
<path d="M15.9197 226.871V157.12C15.9197 156.226 17.1941 155.5 18.766 155.5H31.4679C33.0398 155.5 34.3142 156.227 34.3142 157.12V227.052L15.9197 226.871Z" fill="#3F3D56"/>
<path d="M264.678 227.779H0.322711C0.237123 227.779 0.15504 227.744 0.0945196 227.682C0.0339996 227.62 0 227.536 0 227.449C0 227.361 0.0339996 227.277 0.0945196 227.216C0.15504 227.154 0.237123 227.119 0.322711 227.119H264.677C264.763 227.119 264.845 227.154 264.905 227.216C264.966 227.277 265 227.361 265 227.449C265 227.536 264.966 227.62 264.905 227.682C264.845 227.744 264.763 227.779 264.677 227.779H264.678Z" fill="#E6E6E6"/>
<path d="M141.777 226.625V62.6725C141.777 60.5699 143.051 58.8652 144.623 58.8652H157.325C158.897 58.8652 160.171 60.5699 160.171 62.6725V227.052L141.777 226.625Z" fill="#2057B5"/>
<path d="M202.399 91.3293C204.003 91.3293 205.303 89.9995 205.303 88.359C205.303 86.7185 204.003 85.3887 202.399 85.3887C200.795 85.3887 199.494 86.7185 199.494 88.359C199.494 89.9995 200.795 91.3293 202.399 91.3293Z" fill="#A0616A"/>
<path d="M234.67 90.0093C236.274 90.0093 237.574 88.6794 237.574 87.0389C237.574 85.3985 236.274 84.0686 234.67 84.0686C233.066 84.0686 231.765 85.3985 231.765 87.0389C231.765 88.6794 233.066 90.0093 234.67 90.0093Z" fill="#A0616A"/>
<path d="M241.727 123.809C242.011 123.544 244.321 109.725 244.308 109.414C244.272 107.711 239.193 105.767 238.176 106.443C237.217 107.081 235.547 114.405 234.472 115.739L233.336 113.704H224.3L223.752 114.744C222.566 114.014 221.5 113.34 221.119 113.117C220.989 113.027 220.846 112.955 220.696 112.904C219.757 112.69 218.876 112.266 218.115 111.664C217.372 111.079 213.928 104.961 213.005 105.123C211.962 105.301 208.447 108.41 208.487 111.394C208.929 111.384 214.687 123.159 214.768 123.598C215.21 125.452 216.67 152.502 217.141 153.763C219.312 153.548 217.598 153.166 219.699 153.763C221.961 154.407 224.349 153.71 226.683 153.453C227.654 153.354 228.63 153.31 229.606 153.321C233.156 153.337 238.223 153.539 241.66 154.44C241.679 152.136 239.701 147.152 238.968 144.977C238.872 144.327 238.875 143.666 238.978 143.017C239.071 142.222 240.961 124.688 241.727 123.809Z" fill="#E6E6E6"/>
</g>
<defs>
<clipPath id="clip0">
<rect width="265" height="227" fill="white" transform="translate(0 0.778809)"/>
</clipPath>
</defs>
</svg>
