<svg width="440" height="266" viewBox="0 0 440 266" fill="none" xmlns="http://www.w3.org/2000/svg">
<g clip-path="url(#clip0)">
<path d="M27.6781 55.7554C22.2039 55.7554 16.8526 54.1204 12.3009 51.0572C7.7493 47.994 4.20172 43.64 2.10682 38.5461C0.0119315 33.4521 -0.536188 27.8468 0.531779 22.439C1.59975 17.0313 4.23584 12.0639 8.1067 8.16518C11.9776 4.26641 16.9093 1.61131 22.2784 0.535645C27.6474 -0.540024 33.2125 0.0120485 38.2701 2.12205C43.3276 4.23205 47.6503 7.80521 50.6916 12.3897C53.733 16.9741 55.3562 22.364 55.3562 27.8777C55.3479 35.2688 52.4292 42.3547 47.2403 47.581C42.0515 52.8073 35.0163 55.7471 27.6781 55.7554ZM27.6781 1.16156C22.432 1.16156 17.3037 2.72843 12.9417 5.66404C8.57967 8.59965 5.1799 12.7721 3.1723 17.6539C1.16469 22.5356 0.639412 27.9073 1.66288 33.0898C2.68635 38.2722 5.21259 43.0326 8.92217 46.7689C12.6317 50.5052 17.358 53.0497 22.5034 54.0805C27.6487 55.1114 32.982 54.5823 37.8287 52.5602C42.6755 50.5381 46.8182 47.1139 49.7327 42.7204C52.6473 38.327 54.203 33.1617 54.203 27.8777C54.195 20.7946 51.3979 14.0039 46.4252 8.99541C41.4526 3.98689 34.7105 1.16959 27.6781 1.16156Z" fill="#F2F2F2"/>
<path d="M215.659 39.4935C212.922 39.4935 210.246 38.676 207.97 37.1443C205.694 35.6127 203.921 33.4358 202.873 30.8888C201.826 28.3418 201.552 25.5391 202.086 22.8353C202.62 20.1314 203.938 17.6477 205.873 15.6983C207.809 13.7489 210.275 12.4214 212.959 11.8836C215.644 11.3457 218.426 11.6218 220.955 12.6768C223.484 13.7318 225.645 15.5183 227.166 17.8106C228.686 20.1028 229.498 22.7977 229.498 25.5546C229.494 29.2501 228.034 32.7931 225.44 35.4062C222.846 38.0194 219.328 39.4893 215.659 39.4935ZM215.659 12.7773C213.15 12.7773 210.697 13.5267 208.611 14.9307C206.525 16.3347 204.899 18.3302 203.939 20.6649C202.979 22.9997 202.727 25.5688 203.217 28.0473C203.706 30.5259 204.915 32.8026 206.689 34.5895C208.463 36.3764 210.723 37.5934 213.184 38.0864C215.645 38.5794 218.196 38.3264 220.514 37.3593C222.832 36.3922 224.813 34.7545 226.207 32.6533C227.601 30.5521 228.345 28.0817 228.345 25.5546C228.341 22.167 227.003 18.9193 224.625 16.5239C222.247 14.1285 219.022 12.7811 215.659 12.7773Z" fill="#F2F2F2"/>
<path d="M313.109 107.445C310.03 107.445 307.02 106.526 304.459 104.803C301.899 103.08 299.904 100.631 298.725 97.7651C297.547 94.8998 297.238 91.7468 297.839 88.7049C298.44 85.6631 299.923 82.869 302.1 80.6759C304.277 78.4828 307.052 76.9894 310.072 76.3843C313.092 75.7792 316.222 76.0898 319.067 77.2767C321.912 78.4635 324.343 80.4734 326.054 83.0522C327.765 85.6309 328.678 88.6627 328.678 91.7642C328.673 95.9217 327.031 99.9075 324.113 102.847C321.194 105.787 317.237 107.441 313.109 107.445ZM313.109 77.2446C310.258 77.2446 307.471 78.0961 305.1 79.6916C302.729 81.287 300.882 83.5547 299.791 86.2078C298.7 88.8609 298.414 91.7803 298.97 94.5968C299.527 97.4134 300.899 100.001 302.916 102.031C304.932 104.062 307.5 105.445 310.297 106.005C313.093 106.565 315.992 106.278 318.626 105.179C321.26 104.08 323.511 102.219 325.095 99.8309C326.679 97.4431 327.525 94.6359 327.525 91.7642C327.52 87.9147 326 84.2241 323.298 81.502C320.595 78.78 316.931 77.2489 313.109 77.2446Z" fill="#F2F2F2"/>
<path d="M439.423 266H309.682C309.529 266 309.383 265.939 309.274 265.83C309.166 265.721 309.105 265.573 309.105 265.419C309.105 265.265 309.166 265.117 309.274 265.009C309.383 264.9 309.529 264.838 309.682 264.838H439.423C439.576 264.838 439.723 264.9 439.831 265.009C439.939 265.117 440 265.265 440 265.419C440 265.573 439.939 265.721 439.831 265.83C439.723 265.939 439.576 266 439.423 266Z" fill="#CCCCCC"/>
<path d="M369.571 89.0036C377.393 89.0036 383.733 82.6171 383.733 74.7389C383.733 66.8608 377.393 60.4742 369.571 60.4742C361.749 60.4742 355.408 66.8608 355.408 74.7389C355.408 82.6171 361.749 89.0036 369.571 89.0036Z" fill="#FFB8B8"/>
<path d="M371.04 244.129L364.346 246.419L352.391 221.504L362.271 218.124L371.04 244.129Z" fill="#FFB8B8"/>
<path d="M358.916 246.128L371.825 241.712L374.586 249.899L353.548 257.096C353.186 256.021 353.037 254.884 353.11 253.751C353.184 252.618 353.478 251.511 353.977 250.493C354.475 249.474 355.168 248.565 356.015 247.816C356.863 247.067 357.848 246.494 358.916 246.128Z" fill="#2F2E41"/>
<path d="M386.164 258.203L379.104 258.56L374.375 231.301L384.796 230.773L386.164 258.203Z" fill="#FFB8B8"/>
<path d="M373.959 256.784L387.576 256.094L388.007 264.73L365.817 265.853C365.76 264.719 365.926 263.585 366.305 262.515C366.683 261.446 367.267 260.462 368.023 259.62C368.78 258.777 369.693 258.094 370.711 257.607C371.73 257.12 372.834 256.841 373.959 256.784Z" fill="#2F2E41"/>
<path d="M344.148 167.632C344.781 167.065 345.283 166.364 345.618 165.58C345.954 164.795 346.114 163.947 346.088 163.093C346.062 162.24 345.851 161.402 345.47 160.64C345.088 159.878 344.545 159.209 343.879 158.681L350.61 139.065L340.236 141.736L335.434 159.954C334.627 161.14 334.281 162.582 334.46 164.008C334.639 165.435 335.331 166.745 336.405 167.692C337.479 168.638 338.861 169.155 340.288 169.144C341.715 169.133 343.089 168.595 344.148 167.632Z" fill="#FFB8B8"/>
<path d="M385.505 249.984C385.413 249.984 385.322 249.979 385.231 249.969L375.647 248.947C375.058 248.888 374.508 248.625 374.088 248.205C373.668 247.785 373.405 247.232 373.342 246.64L365.935 180.134L360.576 198.333L370.568 234.099C370.67 234.464 370.692 234.846 370.633 235.219C370.573 235.593 370.434 235.949 370.225 236.263C370.016 236.578 369.741 236.842 369.42 237.039C369.099 237.236 368.74 237.36 368.367 237.404L358.652 238.528C358.033 238.597 357.41 238.441 356.896 238.088C356.382 237.735 356.01 237.208 355.847 236.603L345.232 196.353C345.145 196.022 345.123 195.677 345.168 195.338L349.939 159.213L385.525 162.088L388.098 247.291C388.109 247.64 388.05 247.989 387.924 248.315C387.799 248.641 387.609 248.939 387.367 249.19C387.125 249.441 386.836 249.641 386.516 249.777C386.196 249.914 385.852 249.984 385.505 249.984V249.984Z" fill="#2F2E41"/>
<path d="M373.203 168.265C361.281 168.265 347.783 163.625 346.966 163.34L346.729 163.257L360.179 93.7465L360.426 93.7567C365.756 93.9745 380.302 94.0862 380.449 94.0873L380.71 94.0893L386.316 155.431L387.318 164.404L387.195 164.504C383.766 167.296 378.649 168.265 373.203 168.265Z" fill="#2057B5"/>
<path d="M351.665 162.257L343.252 158.844L347.54 106.606C347.643 105.318 348.032 104.07 348.678 102.954C349.325 101.838 350.211 100.882 351.273 100.158L355.7 97.1231C355.575 96.6941 355.552 96.2413 355.635 95.8018C355.717 95.3624 355.901 94.9488 356.173 94.5951C356.445 94.2414 356.796 93.9577 357.197 93.7672C357.599 93.5767 358.04 93.4848 358.484 93.4992L359.751 93.5403C359.992 93.3766 360.277 93.2902 360.568 93.2923C360.858 93.2944 361.141 93.3849 361.38 93.552C361.619 93.7191 361.802 93.955 361.905 94.2287C362.008 94.5023 362.027 94.801 361.958 95.0856L361.68 100.62L351.665 162.257Z" fill="#2F2E41"/>
<path d="M347.42 152.892L336.436 152.427L339.994 129.374L342.943 107.682C343.001 106.903 343.233 106.148 343.621 105.472C344.01 104.796 344.545 104.217 345.187 103.779C345.829 103.341 346.561 103.054 347.329 102.941C348.096 102.828 348.879 102.891 349.619 103.126C350.771 103.49 351.759 104.251 352.41 105.275C353.061 106.3 353.333 107.522 353.179 108.728L350.192 132.231L347.42 152.892Z" fill="#2F2E41"/>
<path d="M364.812 163.056L364.737 162.823C364.687 162.664 359.736 146.671 368.019 127.586L372.173 106.779L375.722 93.7143C375.789 93.4808 375.908 93.2661 376.072 93.0874C376.235 92.9086 376.437 92.7707 376.663 92.6846C376.928 92.5922 377.214 92.5804 377.486 92.6507C377.757 92.7209 378.002 92.8702 378.19 93.0798C380.664 92.3483 383.324 92.6162 385.605 93.8266L390.59 96.4714C391.699 97.0595 392.582 98.0014 393.102 99.1494C393.622 100.297 393.749 101.587 393.463 102.815L386.65 132.1L389.962 159.454L364.812 163.056Z" fill="#2F2E41"/>
<path d="M372.066 151.781C372.909 151.873 373.762 151.778 374.564 151.503C375.366 151.227 376.099 150.778 376.71 150.186C377.321 149.595 377.796 148.875 378.102 148.079C378.407 147.282 378.535 146.428 378.477 145.576L393.905 134.065L388.512 131.489L371.876 140.121C370.462 140.314 369.167 141.022 368.237 142.113C367.306 143.203 366.806 144.599 366.829 146.036C366.852 147.474 367.399 148.852 368.364 149.911C369.329 150.97 370.646 151.635 372.066 151.781V151.781Z" fill="#FFB8B8"/>
<path d="M381.739 146.628L376.528 136.831L389.379 128.312L383.108 105.656C382.857 104.749 382.794 103.799 382.923 102.866C383.053 101.934 383.372 101.038 383.861 100.235C384.349 99.4323 384.997 98.7395 385.763 98.2C386.53 97.6606 387.398 97.2861 388.315 97.0999C389.934 96.7748 391.616 97.0526 393.048 97.8819C394.48 98.7113 395.564 100.036 396.099 101.609L404.561 126.662C404.736 127.178 404.745 127.736 404.589 128.258C404.433 128.78 404.118 129.24 403.689 129.573L381.739 146.628Z" fill="#2F2E41"/>
<path d="M370.573 77.7646C368.875 77.987 367.595 76.2375 367.001 74.6202C366.407 73.0029 365.954 71.12 364.478 70.2464C362.461 69.0529 359.881 70.4884 357.575 70.0946C354.971 69.6499 353.277 66.8699 353.145 64.2128C353.012 61.5556 354.062 59 355.092 56.5501L355.452 59.5947C355.403 58.5628 355.619 57.5357 356.078 56.6117C356.536 55.6877 357.223 54.8977 358.071 54.3173L357.608 58.7848C357.706 58.1684 357.925 57.5778 358.251 57.0467C358.576 56.5156 359.003 56.0545 359.506 55.69C360.01 55.3254 360.579 55.0646 361.183 54.9223C361.787 54.7801 362.412 54.7594 363.024 54.8613L362.951 57.5232C365.959 57.1629 368.993 56.8022 372.01 57.0766C375.027 57.3511 378.065 58.3125 380.351 60.3137C383.771 63.3071 385.021 68.2362 384.601 72.7805C384.182 77.3247 382.319 81.5937 380.378 85.7176C379.89 86.7552 379.214 87.926 378.082 88.0582C377.064 88.1769 376.133 87.3202 375.817 86.3389C375.573 85.332 375.583 84.2798 375.845 83.2776C376.131 81.7458 376.491 80.1803 376.222 78.6454C375.953 77.1106 374.857 75.5938 373.321 75.4057C371.785 75.2176 370.213 76.9862 370.952 78.3558L370.573 77.7646Z" fill="#2F2E41"/>
<path d="M185.276 234.392L179.763 232.054L175.981 204.218H125.619L121.519 231.94L116.587 234.424C116.351 234.543 116.162 234.739 116.05 234.979C115.938 235.22 115.911 235.492 115.971 235.75C116.032 236.009 116.177 236.239 116.384 236.404C116.591 236.569 116.847 236.659 117.111 236.659H184.822C185.092 236.659 185.354 236.565 185.564 236.392C185.773 236.22 185.916 235.98 185.97 235.713C186.023 235.446 185.984 235.168 185.857 234.928C185.731 234.687 185.526 234.498 185.276 234.392Z" fill="#E6E6E6"/>
<path d="M274.774 207.921H27.3789C26.0809 207.918 24.837 207.397 23.9202 206.472C23.0034 205.546 22.4885 204.292 22.4885 202.985V167.847H279.665V202.985C279.665 204.292 279.15 205.546 278.233 206.472C277.316 207.397 276.072 207.918 274.774 207.921Z" fill="#CCCCCC"/>
<path d="M279.923 184.454H22.2627V34.1078C22.2645 32.53 22.8876 31.0174 23.9953 29.9017C25.1031 28.7861 26.6049 28.1585 28.1714 28.1568H274.015C275.581 28.1585 277.083 28.7861 278.191 29.9017C279.298 31.0174 279.921 32.53 279.923 34.1078V184.454Z" fill="#3F3D56"/>
<path d="M264.534 173.542H37.6517C36.444 173.541 35.2862 173.057 34.4322 172.197C33.5783 171.337 33.0979 170.17 33.0966 168.954V43.6568C33.0979 42.4404 33.5782 41.2742 34.4322 40.414C35.2862 39.5539 36.444 39.07 37.6517 39.0686H264.534C265.742 39.07 266.9 39.5539 267.754 40.414C268.608 41.2742 269.088 42.4404 269.089 43.6568V168.954C269.088 170.17 268.608 171.337 267.754 172.197C266.9 173.057 265.742 173.541 264.534 173.542Z" fill="white"/>
<path d="M262.399 236.949H42.7033C42.5504 236.949 42.4037 236.888 42.2956 236.779C42.1875 236.67 42.1267 236.522 42.1267 236.368C42.1267 236.214 42.1875 236.067 42.2956 235.958C42.4037 235.849 42.5504 235.788 42.7033 235.788H262.399C262.552 235.788 262.698 235.849 262.806 235.958C262.915 236.067 262.975 236.214 262.975 236.368C262.975 236.522 262.915 236.67 262.806 236.779C262.698 236.888 262.552 236.949 262.399 236.949Z" fill="#CCCCCC"/>
<path d="M243.219 157.974H58.9664C58.8135 157.974 58.6668 157.913 58.5587 157.804C58.4505 157.695 58.3898 157.547 58.3898 157.393V68.4437C58.3898 68.2897 58.4505 68.142 58.5587 68.033C58.6668 67.9241 58.8135 67.8629 58.9664 67.8629C59.1193 67.8629 59.266 67.9241 59.3741 68.033C59.4823 68.142 59.543 68.2897 59.543 68.4437V156.812H243.219C243.372 156.812 243.519 156.873 243.627 156.982C243.735 157.091 243.796 157.239 243.796 157.393C243.796 157.547 243.735 157.695 243.627 157.804C243.519 157.913 243.372 157.974 243.219 157.974Z" fill="#3F3D56"/>
<path d="M98.3332 151.585H81.5746C81.1208 151.585 80.6858 151.403 80.3649 151.08C80.044 150.756 79.8635 150.318 79.8629 149.861V126.593C79.8635 126.136 80.044 125.698 80.3649 125.374C80.6858 125.051 81.1208 124.869 81.5746 124.869H98.3332C98.787 124.869 99.222 125.051 99.5429 125.374C99.8638 125.698 100.044 126.136 100.045 126.593V149.861C100.044 150.318 99.8638 150.756 99.5429 151.08C99.222 151.403 98.787 151.585 98.3332 151.585Z" fill="#2057B5"/>
<path d="M128.894 151.585H112.136C111.682 151.585 111.247 151.403 110.926 151.08C110.605 150.756 110.425 150.318 110.424 149.861V104.523C110.425 104.066 110.605 103.628 110.926 103.305C111.247 102.981 111.682 102.8 112.136 102.799H128.894C129.348 102.8 129.783 102.981 130.104 103.305C130.425 103.628 130.606 104.066 130.606 104.523V149.861C130.606 150.318 130.425 150.756 130.104 151.08C129.783 151.403 129.348 151.585 128.894 151.585Z" fill="#2057B5"/>
<path d="M159.456 151.585H142.697C142.243 151.585 141.808 151.403 141.487 151.08C141.167 150.756 140.986 150.318 140.985 149.861V126.593C140.986 126.136 141.167 125.698 141.487 125.374C141.808 125.051 142.243 124.869 142.697 124.869H159.456C159.91 124.869 160.345 125.051 160.666 125.374C160.986 125.698 161.167 126.136 161.167 126.593V149.861C161.167 150.318 160.986 150.756 160.666 151.08C160.345 151.403 159.91 151.585 159.456 151.585Z" fill="#2057B5"/>
<path d="M190.017 151.585H173.259C172.815 151.595 172.386 151.427 172.065 151.118C171.744 150.81 171.558 150.386 171.547 149.939V95.7332C171.558 95.2865 171.744 94.8625 172.065 94.554C172.386 94.2455 172.815 94.0777 173.259 94.0873H190.017C190.461 94.0777 190.89 94.2455 191.211 94.554C191.531 94.8625 191.718 95.2865 191.729 95.7332V149.939C191.718 150.386 191.531 150.81 191.211 151.118C190.89 151.427 190.461 151.595 190.017 151.585Z" fill="#2057B5"/>
<path d="M220.578 151.585H203.82C203.366 151.585 202.931 151.403 202.61 151.08C202.289 150.756 202.109 150.318 202.108 149.861V80.1301C202.109 79.673 202.289 79.2348 202.61 78.9116C202.931 78.5884 203.366 78.4066 203.82 78.4061H220.578C221.032 78.4066 221.467 78.5884 221.788 78.9116C222.109 79.2348 222.29 79.673 222.29 80.1301V149.861C222.29 150.318 222.109 150.756 221.788 151.08C221.467 151.403 221.032 151.585 220.578 151.585Z" fill="#2057B5"/>
<path d="M89.9539 117.9C91.8647 117.9 93.4137 116.339 93.4137 114.415C93.4137 112.49 91.8647 110.93 89.9539 110.93C88.0431 110.93 86.4941 112.49 86.4941 114.415C86.4941 116.339 88.0431 117.9 89.9539 117.9Z" fill="#3F3D56"/>
<path d="M120.515 95.2489C122.426 95.2489 123.975 93.6887 123.975 91.7642C123.975 89.8396 122.426 88.2795 120.515 88.2795C118.605 88.2795 117.056 89.8396 117.056 91.7642C117.056 93.6887 118.605 95.2489 120.515 95.2489Z" fill="#3F3D56"/>
<path d="M151.077 117.9C152.987 117.9 154.536 116.339 154.536 114.415C154.536 112.49 152.987 110.93 151.077 110.93C149.166 110.93 147.617 112.49 147.617 114.415C147.617 116.339 149.166 117.9 151.077 117.9Z" fill="#3F3D56"/>
<path d="M181.638 84.214C183.549 84.214 185.098 82.6538 185.098 80.7293C185.098 78.8047 183.549 77.2445 181.638 77.2445C179.727 77.2445 178.178 78.8047 178.178 80.7293C178.178 82.6538 179.727 84.214 181.638 84.214Z" fill="#3F3D56"/>
<path d="M212.199 71.4367C214.11 71.4367 215.659 69.8765 215.659 67.952C215.659 66.0274 214.11 64.4673 212.199 64.4673C210.288 64.4673 208.739 66.0274 208.739 67.952C208.739 69.8765 210.288 71.4367 212.199 71.4367Z" fill="#3F3D56"/>
<path d="M151.149 115.195L120.515 92.0848L90.3 114.88L89.608 113.95L120.515 90.6334L151.004 113.634L181.301 80.2403L181.422 80.1903L211.983 67.7882L212.415 68.8656L181.975 81.2183L151.149 115.195Z" fill="#3F3D56"/>
</g>
<defs>
<clipPath id="clip0">
<rect width="440" height="266" fill="white"/>
</clipPath>
</defs>
</svg>
